<mxfile host="app.diagrams.net" agent="Mozilla/5.0 (X11; Linux x86_64; rv:141.0) Gecko/20100101 Firefox/141.0" version="28.0.7">
  <diagram name="Page-1" id="9ixbMLwkYsStdc26DxR0">
    <mxGraphModel dx="872" dy="483" grid="1" gridSize="10" guides="1" tooltips="1" connect="1" arrows="1" fold="1" page="1" pageScale="1" pageWidth="850" pageHeight="1100" math="0" shadow="0">
      <root>
        <mxCell id="0" />
        <mxCell id="1" parent="0" />
        <mxCell id="ZtzduNWpXnvyVMdk7ES9-10" style="edgeStyle=orthogonalEdgeStyle;rounded=0;orthogonalLoop=1;jettySize=auto;html=1;" edge="1" parent="1" source="ZtzduNWpXnvyVMdk7ES9-2" target="ZtzduNWpXnvyVMdk7ES9-6">
          <mxGeometry relative="1" as="geometry" />
        </mxCell>
        <mxCell id="ZtzduNWpXnvyVMdk7ES9-13" style="edgeStyle=orthogonalEdgeStyle;rounded=0;orthogonalLoop=1;jettySize=auto;html=1;fillColor=#dae8fc;strokeColor=#6c8ebf;" edge="1" parent="1" source="ZtzduNWpXnvyVMdk7ES9-2" target="ZtzduNWpXnvyVMdk7ES9-3">
          <mxGeometry relative="1" as="geometry" />
        </mxCell>
        <mxCell id="ZtzduNWpXnvyVMdk7ES9-14" style="edgeStyle=orthogonalEdgeStyle;rounded=0;orthogonalLoop=1;jettySize=auto;html=1;fillColor=#dae8fc;strokeColor=#6c8ebf;" edge="1" parent="1" source="ZtzduNWpXnvyVMdk7ES9-2" target="ZtzduNWpXnvyVMdk7ES9-4">
          <mxGeometry relative="1" as="geometry" />
        </mxCell>
        <mxCell id="ZtzduNWpXnvyVMdk7ES9-16" style="edgeStyle=orthogonalEdgeStyle;rounded=0;orthogonalLoop=1;jettySize=auto;html=1;" edge="1" parent="1" source="ZtzduNWpXnvyVMdk7ES9-2" target="ZtzduNWpXnvyVMdk7ES9-8">
          <mxGeometry relative="1" as="geometry">
            <Array as="points">
              <mxPoint x="120" y="240" />
              <mxPoint x="120" y="90" />
              <mxPoint x="630" y="90" />
            </Array>
          </mxGeometry>
        </mxCell>
        <mxCell id="ZtzduNWpXnvyVMdk7ES9-2" value="&lt;div&gt;Main board&lt;/div&gt;&lt;div&gt;Raspberry PI 4&lt;/div&gt;" style="rounded=1;whiteSpace=wrap;html=1;" vertex="1" parent="1">
          <mxGeometry x="190" y="210" width="120" height="60" as="geometry" />
        </mxCell>
        <mxCell id="ZtzduNWpXnvyVMdk7ES9-3" value="&lt;span&gt;Sony&#39;s IMX500 Intelligent Vision Sensor - Camera&lt;/span&gt;" style="rounded=1;whiteSpace=wrap;html=1;" vertex="1" parent="1">
          <mxGeometry x="190" y="110" width="120" height="60" as="geometry" />
        </mxCell>
        <mxCell id="ZtzduNWpXnvyVMdk7ES9-4" value="BNO055 - Adafruit&#39;s 9-DOF IMU" style="rounded=1;whiteSpace=wrap;html=1;" vertex="1" parent="1">
          <mxGeometry x="190" y="310" width="120" height="60" as="geometry" />
        </mxCell>
        <mxCell id="ZtzduNWpXnvyVMdk7ES9-11" style="edgeStyle=orthogonalEdgeStyle;rounded=0;orthogonalLoop=1;jettySize=auto;html=1;" edge="1" parent="1" source="ZtzduNWpXnvyVMdk7ES9-6" target="ZtzduNWpXnvyVMdk7ES9-7">
          <mxGeometry relative="1" as="geometry" />
        </mxCell>
        <mxCell id="ZtzduNWpXnvyVMdk7ES9-21" style="edgeStyle=orthogonalEdgeStyle;rounded=0;orthogonalLoop=1;jettySize=auto;html=1;" edge="1" parent="1" source="ZtzduNWpXnvyVMdk7ES9-6" target="ZtzduNWpXnvyVMdk7ES9-2">
          <mxGeometry relative="1" as="geometry" />
        </mxCell>
        <mxCell id="ZtzduNWpXnvyVMdk7ES9-6" value="&lt;div&gt;Logic Shifter&lt;/div&gt;" style="rounded=1;whiteSpace=wrap;html=1;" vertex="1" parent="1">
          <mxGeometry x="390" y="210" width="120" height="60" as="geometry" />
        </mxCell>
        <mxCell id="ZtzduNWpXnvyVMdk7ES9-12" style="edgeStyle=orthogonalEdgeStyle;rounded=0;orthogonalLoop=1;jettySize=auto;html=1;fillColor=#e1d5e7;strokeColor=#9673a6;" edge="1" parent="1" source="ZtzduNWpXnvyVMdk7ES9-7" target="ZtzduNWpXnvyVMdk7ES9-8">
          <mxGeometry relative="1" as="geometry" />
        </mxCell>
        <mxCell id="ZtzduNWpXnvyVMdk7ES9-20" style="edgeStyle=orthogonalEdgeStyle;rounded=0;orthogonalLoop=1;jettySize=auto;html=1;" edge="1" parent="1" source="ZtzduNWpXnvyVMdk7ES9-7" target="ZtzduNWpXnvyVMdk7ES9-6">
          <mxGeometry relative="1" as="geometry" />
        </mxCell>
        <mxCell id="ZtzduNWpXnvyVMdk7ES9-7" value="Arduino" style="rounded=1;whiteSpace=wrap;html=1;" vertex="1" parent="1">
          <mxGeometry x="570" y="210" width="120" height="60" as="geometry" />
        </mxCell>
        <mxCell id="ZtzduNWpXnvyVMdk7ES9-8" value="Computer" style="rounded=1;whiteSpace=wrap;html=1;" vertex="1" parent="1">
          <mxGeometry x="570" y="110" width="120" height="60" as="geometry" />
        </mxCell>
        <mxCell id="ZtzduNWpXnvyVMdk7ES9-15" style="edgeStyle=orthogonalEdgeStyle;rounded=0;orthogonalLoop=1;jettySize=auto;html=1;exitX=0.5;exitY=0;exitDx=0;exitDy=0;entryX=0.558;entryY=0.083;entryDx=0;entryDy=0;entryPerimeter=0;" edge="1" parent="1" source="ZtzduNWpXnvyVMdk7ES9-6" target="ZtzduNWpXnvyVMdk7ES9-6">
          <mxGeometry relative="1" as="geometry" />
        </mxCell>
        <mxCell id="ZtzduNWpXnvyVMdk7ES9-17" value="&lt;div&gt;WiFi interface (debugging)&lt;/div&gt;" style="text;html=1;align=center;verticalAlign=middle;whiteSpace=wrap;rounded=0;" vertex="1" parent="1">
          <mxGeometry x="400" y="60" width="150" height="30" as="geometry" />
        </mxCell>
        <mxCell id="ZtzduNWpXnvyVMdk7ES9-18" value="USB Serial interface" style="text;html=1;align=center;verticalAlign=middle;whiteSpace=wrap;rounded=0;" vertex="1" parent="1">
          <mxGeometry x="633" y="176" width="90" height="30" as="geometry" />
        </mxCell>
        <mxCell id="ZtzduNWpXnvyVMdk7ES9-19" value="UART" style="text;html=1;align=center;verticalAlign=middle;whiteSpace=wrap;rounded=0;" vertex="1" parent="1">
          <mxGeometry x="385" y="180" width="130" height="30" as="geometry" />
        </mxCell>
        <mxCell id="ZtzduNWpXnvyVMdk7ES9-22" value="&lt;div&gt;5v &amp;lt;-&amp;gt; 3v3&amp;nbsp;&lt;/div&gt;&lt;div&gt;logic shift&lt;/div&gt;" style="text;html=1;align=center;verticalAlign=middle;whiteSpace=wrap;rounded=0;" vertex="1" parent="1">
          <mxGeometry x="390" y="270" width="130" height="30" as="geometry" />
        </mxCell>
        <mxCell id="ZtzduNWpXnvyVMdk7ES9-23" value="I2C" style="text;html=1;align=center;verticalAlign=middle;whiteSpace=wrap;rounded=0;" vertex="1" parent="1">
          <mxGeometry x="260" y="280" width="70" height="30" as="geometry" />
        </mxCell>
        <mxCell id="ZtzduNWpXnvyVMdk7ES9-24" value="I2C" style="text;html=1;align=center;verticalAlign=middle;whiteSpace=wrap;rounded=0;" vertex="1" parent="1">
          <mxGeometry x="260" y="280" width="70" height="30" as="geometry" />
        </mxCell>
        <mxCell id="ZtzduNWpXnvyVMdk7ES9-28" value="" style="rounded=0;whiteSpace=wrap;html=1;fillColor=none;dashed=1;" vertex="1" parent="1">
          <mxGeometry x="150" y="60" width="190" height="350" as="geometry" />
        </mxCell>
        <mxCell id="ZtzduNWpXnvyVMdk7ES9-29" value="&amp;nbsp;" style="rounded=0;whiteSpace=wrap;html=1;fillColor=none;dashed=1;" vertex="1" parent="1">
          <mxGeometry x="370" y="60" width="370" height="350" as="geometry" />
        </mxCell>
        <mxCell id="ZtzduNWpXnvyVMdk7ES9-30" value="&lt;div&gt;Star tracker&lt;/div&gt;" style="text;html=1;align=center;verticalAlign=middle;whiteSpace=wrap;rounded=0;" vertex="1" parent="1">
          <mxGeometry x="150" y="380" width="100" height="30" as="geometry" />
        </mxCell>
        <mxCell id="ZtzduNWpXnvyVMdk7ES9-31" value="Subsystems simulation" style="text;html=1;align=center;verticalAlign=middle;whiteSpace=wrap;rounded=0;" vertex="1" parent="1">
          <mxGeometry x="600" y="380" width="140" height="30" as="geometry" />
        </mxCell>
      </root>
    </mxGraphModel>
  </diagram>
</mxfile>
